<?xml version="1.0" encoding="UTF-8" standalone="no"?><!DOCTYPE svg PUBLIC "-//W3C//DTD SVG 1.1//EN" "http://www.w3.org/Graphics/SVG/1.1/DTD/svg11.dtd"><svg width="100%" height="100%" viewBox="0 0 84 84" version="1.1" xmlns="http://www.w3.org/2000/svg" xmlns:xlink="http://www.w3.org/1999/xlink" xml:space="preserve" xmlns:serif="http://www.serif.com/" style="fill-rule:evenodd;clip-rule:evenodd;stroke-linecap:round;stroke-linejoin:round;stroke-miterlimit:1.5;"><rect id="Artboard1" x="0" y="0" width="83.333" height="83.333" style="fill:none;"/><g id="Artboard11" serif:id="Artboard1"><g><rect x="36.555" y="18.983" width="10.334" height="44.834"/><circle cx="31.094" cy="31.268" r="4.145"/><circle cx="52.239" cy="30.859" r="4.145"/><circle cx="31.094" cy="41.761" r="4.145"/><circle cx="52.239" cy="41.352" r="4.145"/><circle cx="31.094" cy="51.805" r="4.145"/><circle cx="52.239" cy="51.396" r="4.145"/><rect x="33.742" y="28.944" width="5.439" height="4.648"/><rect x="44.152" y="28.535" width="5.439" height="4.648"/><rect x="33.742" y="39.437" width="5.439" height="4.648"/><rect x="44.152" y="39.028" width="5.439" height="4.648"/><rect x="33.742" y="49.481" width="5.439" height="4.648"/><rect x="44.152" y="49.072" width="5.439" height="4.648"/><path d="M30.93,4.086c-0,-0 -3.591,7.915 -0,11.712c3.782,3.999 18.503,4.486 22.33,0.507c3.525,-3.666 -0,-11.99 -0,-11.99" style="fill:none;stroke:#000;stroke-width:4.17px;"/><path d="M30.739,78.463c-0,-0 -2.809,-9 -0,-11.712c4.048,-3.908 18.072,-4.4 22.33,0.507c2.62,3.018 0,11.99 0,11.99" style="fill:none;stroke:#000;stroke-width:4.17px;"/></g></g></svg>