<?xml version="1.0" encoding="UTF-8" standalone="no"?><!DOCTYPE svg PUBLIC "-//W3C//DTD SVG 1.1//EN" "http://www.w3.org/Graphics/SVG/1.1/DTD/svg11.dtd"><svg width="100%" height="100%" viewBox="0 0 225 228" version="1.1" xmlns="http://www.w3.org/2000/svg" xmlns:xlink="http://www.w3.org/1999/xlink" xml:space="preserve" xmlns:serif="http://www.serif.com/" style="fill-rule:evenodd;clip-rule:evenodd;stroke-linecap:round;stroke-miterlimit:1.5;"><g><path d="M118.497,228.527c-0.347,-0.073 -0.716,0.077 -1.063,0.004c-0.159,-0.033 -0.031,-0.198 -1.501,-1.369c-14.66,-11.679 -12.331,-25.758 -9.976,-36.956c1.092,-5.192 2.402,-10.411 3.154,-15.869c0.321,-2.329 3.321,-10.625 1.048,-22.15c-2.822,-14.303 -4.917,-28.688 -6.181,-60.087c-0.046,-1.148 -0.359,-8.916 -0.995,-14.323c-1.26,-10.72 -1.294,-10.711 -2.641,-21.42c-0.501,-3.978 -0.682,-6.156 -1.889,-16.494c-0.122,-1.043 -0.09,-1.042 -0.293,-4.667c-0.13,-2.325 -0.121,-2.319 -0.127,-4.647c-0.002,-0.729 -0.146,-1.472 -0.009,-2.189c0.076,-0.398 0.149,-0.372 1.734,-4.762c0.871,-2.416 0.991,-2.359 2.153,-4.654c2.08,-4.109 2.008,-4.141 4.208,-8.189c3.477,-6.399 5.603,-10.677 5.631,-10.711c0.228,-0.271 0.479,-0.522 0.707,-0.793c0.257,0.244 0.535,0.464 0.793,0.708c0.071,0.067 6.86,10.521 8.67,13.844c0.349,0.64 3.995,7.333 4.298,8.032c0.059,0.135 2.356,6.343 2.357,6.364c0.087,3.592 -0.083,6.491 -0.115,7.055c-0.35,5.982 -0.469,5.968 -1.247,11.911c-3.874,29.596 -5.123,29.53 -4.916,51.54c0.016,1.689 0.284,12.187 0.955,20.642c1.871,23.552 4.557,28.761 4.838,38.259c0.211,7.098 -0.871,13.574 -2.931,20.553c-1.005,3.405 -7.984,16.011 -10.313,21.519c-4.481,10.591 -3.554,17.83 2.812,26.936c0.085,0.121 0.094,0.109 0.269,0.287c0.51,0.516 0.538,0.493 0.564,0.565c0.18,0.516 -0.173,0.549 0.006,1.061Z"/><path d="M113.459,74.293l39.706,39.707l-39.706,39.707l-39.707,-39.707l39.707,-39.707Z" style="fill:none;stroke:#000;stroke-width:11px;"/><path d="M93.46,186.189c0,-0 -13.549,-1.475 -13.257,-14.341c0.355,-15.685 38.69,-18.141 38.69,-18.141c0,-0 29.197,4.745 30.667,17.529c1.293,11.257 -11.117,14.686 -11.117,14.686" style="fill:none;stroke:#000;stroke-width:15px;"/><path d="M85.309,39.933c0,-0 -17.622,-1.243 -16.915,5.707c3.151,30.979 46.532,28.653 46.532,28.653c0,0 44.623,-6.753 43.473,-28.932c-0.351,-6.782 -14.886,-6.339 -14.886,-6.339" style="fill:none;stroke:#000;stroke-width:15px;"/></g><g><path d="M225.524,108.897c-0.071,0.347 0.081,0.715 0.011,1.063c-0.032,0.158 -0.198,0.032 -1.349,1.501c-11.499,14.69 -25.479,12.334 -36.535,9.978c-5.2,-1.108 -10.247,-2.395 -15.668,-3.151c-2.177,-0.304 -10.39,-3.323 -21.757,-1.053c-14.028,2.802 -28.166,4.913 -59.333,6.185c-1.133,0.047 -8.756,0.358 -14.139,0.999c-10.58,1.259 -10.571,1.294 -21.142,2.64c-3.878,0.494 -6.075,0.682 -16.275,1.888c-0.983,0.116 -0.982,0.086 -4.605,0.291c-2.292,0.13 -2.286,0.12 -4.583,0.126c-0.716,0.002 -1.444,0.146 -2.146,0.009c-0.394,-0.077 -0.368,-0.15 -4.712,-1.738c-2.385,-0.872 -2.326,-0.992 -4.591,-2.153c-4.054,-2.079 -4.084,-2.007 -8.081,-4.207c-6.315,-3.475 -10.54,-5.599 -10.575,-5.628c-0.271,-0.228 -0.522,-0.478 -0.793,-0.706l0.825,-0.875c9.725,-6.494 13.484,-8.557 14.701,-9.225c3.081,-1.691 6.765,-3.657 6.777,-3.662c0.132,-0.058 6.265,-2.356 6.286,-2.356c3.46,-0.093 6.396,0.081 6.951,0.114c5.905,0.349 5.892,0.467 11.757,1.244c29.252,3.879 29.186,5.126 50.851,4.918c1.892,-0.018 12.181,-0.295 20.358,-0.953c23.246,-1.871 28.364,-4.557 37.767,-4.84c6.743,-0.203 13.125,0.775 20.348,2.938c3.717,1.114 16.131,8.25 22.161,10.701c10.032,4.079 17.017,2.851 25.588,-3.203c0.123,-0.087 0.112,-0.096 0.284,-0.268c0.51,-0.511 0.488,-0.539 0.558,-0.564c0.511,-0.182 0.546,0.17 1.061,-0.013Z"/><path d="M183.739,133.937c-0,-0 -1.455,13.549 -14.152,13.258c-15.479,-0.356 -17.903,-38.691 -17.903,-38.691c0,0 4.683,-29.197 17.299,-30.666c11.109,-1.294 14.493,11.117 14.493,11.117" style="fill:none;stroke:#000;stroke-width:15px;"/><path d="M39.407,142.088c0,0 -1.226,17.622 5.632,16.915c30.572,-3.15 28.277,-46.532 28.277,-46.532c-0,0 -6.664,-44.623 -28.552,-43.473c-6.693,0.351 -6.256,14.886 -6.256,14.886" style="fill:none;stroke:#000;stroke-width:15px;"/></g></svg>