<?xml version="1.0" encoding="UTF-8" standalone="no"?>
<!DOCTYPE svg PUBLIC "-//W3C//DTD SVG 1.1//EN" "http://www.w3.org/Graphics/SVG/1.1/DTD/svg11.dtd">
<svg width="100%" height="100%" viewBox="0 0 3027 625" version="1.1" xmlns="http://www.w3.org/2000/svg" xmlns:xlink="http://www.w3.org/1999/xlink" xml:space="preserve" xmlns:serif="http://www.serif.com/" style="fill-rule:evenodd;clip-rule:evenodd;stroke-linejoin:round;stroke-miterlimit:2;">
    <g transform="matrix(1,0,0,1,-23525.9,-8194.24)">
        <g id="Artboard5" transform="matrix(1,0,0,1,8471.66,-35.4331)">
            <rect x="11124.5" y="36" width="7413.38" height="9647.31" style="fill:none;"/>
            <g transform="matrix(2.06191,0,0,2.06191,14120,7489.33)">
                <g transform="matrix(1.07424,0,0,1.07424,161.406,-49.087)">
                    <path d="M484.489,519.121L522.172,519.121L522.172,658.076L487.629,658.076L487.629,639.627C467.479,654.02 441.965,661.216 411.086,661.216C386.226,661.216 363.132,655.721 341.805,644.73C320.477,633.739 303.468,617.711 290.776,596.645C278.084,575.58 271.738,550.654 271.738,521.869C271.738,494.653 278.084,470.317 290.776,448.858C303.468,427.4 321.001,410.587 343.375,398.418C365.749,386.25 390.936,380.166 418.937,380.166C440.918,380.166 460.872,383.764 478.797,390.96C496.723,398.157 511.966,408.69 524.527,422.559L500.19,446.896C478.208,425.699 451.647,415.101 420.507,415.101C399.572,415.101 380.796,419.68 364.179,428.839C347.562,437.998 334.543,450.69 325.122,466.915C315.701,483.139 310.991,501.457 310.991,521.869C310.991,543.589 315.767,562.43 325.318,578.393C334.87,594.356 347.496,606.459 363.197,614.702C378.899,622.945 395.908,627.066 414.226,627.066C427.049,627.066 439.544,624.908 451.713,620.59C463.881,616.272 474.806,609.926 484.489,601.552L484.489,519.121Z" style="fill-rule:nonzero;stroke:white;stroke-width:0.45px;"/>
                </g>
                <g transform="matrix(1,0,0,1,157.953,0)">
                    <path d="M627.762,484.971C634.304,472.933 643.986,463.774 656.809,457.494C669.632,451.214 685.202,448.073 703.52,448.073L703.52,484.578C701.426,484.317 698.548,484.186 694.884,484.186C674.473,484.186 658.445,490.27 646.799,502.439C635.154,514.607 629.332,531.944 629.332,554.449L629.332,658.076L591.649,658.076L591.649,450.036L627.762,450.036L627.762,484.971Z" style="fill-rule:nonzero;stroke:white;stroke-width:0.48px;"/>
                </g>
                <g transform="matrix(1,0,0,1,131.105,0)">
                    <path d="M749.838,450.036L787.521,450.036L787.521,658.076L749.838,658.076L749.838,450.036ZM768.68,409.998C761.352,409.998 755.268,407.643 750.427,402.932C745.586,398.222 743.165,392.465 743.165,385.661C743.165,378.857 745.586,373.035 750.427,368.194C755.268,363.353 761.352,360.932 768.68,360.932C776.007,360.932 782.091,363.222 786.932,367.801C791.773,372.381 794.194,378.072 794.194,384.876C794.194,391.942 791.773,397.895 786.932,402.736C782.091,407.577 776.007,409.998 768.68,409.998Z" style="fill-rule:nonzero;stroke:white;stroke-width:0.48px;"/>
                </g>
                <g transform="matrix(1,0,0,1,96.5621,0)">
                    <path d="M948.458,660.431C927.785,660.431 909.205,655.852 892.719,646.693C876.233,637.534 863.345,624.908 854.055,608.814C844.765,592.72 840.12,574.468 840.12,554.056C840.12,533.645 844.765,515.392 854.055,499.298C863.345,483.205 876.233,470.644 892.719,461.616C909.205,452.587 927.785,448.073 948.458,448.073C969.131,448.073 987.645,452.587 1004,461.616C1020.36,470.644 1033.18,483.205 1042.47,499.298C1051.76,515.392 1056.4,533.645 1056.4,554.056C1056.4,574.468 1051.76,592.72 1042.47,608.814C1033.18,624.908 1020.36,637.534 1004,646.693C987.645,655.852 969.131,660.431 948.458,660.431ZM948.458,627.459C961.804,627.459 973.776,624.384 984.374,618.235C994.972,612.085 1003.28,603.449 1009.3,592.328C1015.32,581.206 1018.33,568.449 1018.33,554.056C1018.33,539.663 1015.32,526.906 1009.3,515.785C1003.28,504.663 994.972,496.093 984.374,490.074C973.776,484.055 961.804,481.046 948.458,481.046C935.112,481.046 923.14,484.055 912.541,490.074C901.943,496.093 893.569,504.663 887.42,515.785C881.27,526.906 878.195,539.663 878.195,554.056C878.195,568.449 881.27,581.206 887.42,592.328C893.569,603.449 901.943,612.085 912.541,618.235C923.14,624.384 935.112,627.459 948.458,627.459Z" style="fill-rule:nonzero;stroke:white;stroke-width:0.48px;"/>
                </g>
                <g transform="matrix(1,0,0,1,65.1598,0)">
                    <path d="M1218.12,645.908C1212.63,650.618 1205.83,654.216 1197.71,656.702C1189.6,659.188 1181.23,660.431 1172.59,660.431C1151.66,660.431 1135.43,654.805 1123.92,643.553C1112.4,632.3 1106.65,616.206 1106.65,595.272L1106.65,404.503L1144.33,404.503L1144.33,450.036L1203.99,450.036L1203.99,481.046L1144.33,481.046L1144.33,593.701C1144.33,604.954 1147.14,613.59 1152.77,619.608C1158.39,625.627 1166.44,628.637 1176.91,628.637C1188.42,628.637 1198.24,625.365 1206.35,618.823L1218.12,645.908Z" style="fill-rule:nonzero;stroke:white;stroke-width:0.48px;"/>
                </g>
                <g transform="matrix(1,0,0,1,45.9259,0)">
                    <path d="M1381.03,443.755C1400.65,443.755 1418.51,448.27 1434.61,457.298C1450.7,466.326 1463.33,479.018 1472.48,495.373C1481.64,511.728 1486.22,530.766 1486.22,552.486C1486.22,574.206 1481.64,593.244 1472.48,609.599C1463.33,625.954 1450.7,638.646 1434.61,647.674C1418.51,656.702 1400.65,661.216 1381.03,661.216C1351.98,661.216 1329.87,652.057 1314.69,633.739L1314.69,658.076L1256.2,658.076L1256.2,366.82L1317.43,366.82L1317.43,469.27C1332.87,452.26 1354.07,443.755 1381.03,443.755ZM1370.43,610.973C1386.13,610.973 1399.02,605.674 1409.09,595.075C1419.16,584.477 1424.2,570.281 1424.2,552.486C1424.2,534.691 1419.16,520.495 1409.09,509.897C1399.02,499.298 1386.13,493.999 1370.43,493.999C1354.73,493.999 1341.84,499.298 1331.76,509.897C1321.69,520.495 1316.65,534.691 1316.65,552.486C1316.65,570.281 1321.69,584.477 1331.76,595.075C1341.84,605.674 1354.73,610.973 1370.43,610.973Z" style="fill-rule:nonzero;stroke:white;stroke-width:0.48px;"/>
                </g>
                <g transform="matrix(1,0,0,1,30.2247,0.665124)">
                    <path d="M1627.53,661.216C1605.29,661.216 1585.34,656.571 1567.67,647.282C1550.01,637.992 1536.2,625.104 1526.26,608.618C1516.32,592.131 1511.34,573.421 1511.34,552.486C1511.34,531.551 1516.32,512.841 1526.26,496.354C1536.2,479.868 1550.01,466.98 1567.67,457.69C1585.34,448.4 1605.29,443.755 1627.53,443.755C1649.78,443.755 1669.66,448.4 1687.2,457.69C1704.73,466.98 1718.47,479.868 1728.41,496.354C1738.36,512.841 1743.33,531.551 1743.33,552.486C1743.33,573.421 1738.36,592.131 1728.41,608.618C1718.47,625.104 1704.73,637.992 1687.2,647.282C1669.66,656.571 1649.78,661.216 1627.53,661.216ZM1627.53,610.973C1643.23,610.973 1656.12,605.674 1666.2,595.075C1676.27,584.477 1681.31,570.281 1681.31,552.486C1681.31,534.691 1676.27,520.495 1666.2,509.897C1656.12,499.298 1643.23,493.999 1627.53,493.999C1611.83,493.999 1598.88,499.298 1588.67,509.897C1578.47,520.495 1573.36,534.691 1573.36,552.486C1573.36,570.281 1578.47,584.477 1588.67,595.075C1598.88,605.674 1611.83,610.973 1627.53,610.973Z" style="fill-rule:nonzero;stroke:white;stroke-width:0.48px;"/>
                </g>
                <g transform="matrix(1,0,0,1,9.42069,0)">
                    <path d="M1782.97,498.704L1782.97,400.185L1844.21,400.185L1844.21,451.606L1896.41,451.606L1896.41,498.71L1847.15,498.71L1847.15,498.704L1782.97,498.704Z" style="stroke:white;stroke-width:0.48px;"/>
                </g>
                <g transform="matrix(1,0,0,1,9.42069,0)">
                    <clipPath id="_clip1">
                        <rect x="1782.97" y="529.524" width="128.357" height="131.693"/>
                    </clipPath>
                    <g clip-path="url(#_clip1)">
                        <path d="M1844.21,522.301L1844.21,584.673C1844.21,593.571 1846.43,600.44 1850.88,605.281C1855.33,610.122 1861.74,612.543 1870.12,612.543C1879.54,612.543 1887.91,609.926 1895.24,604.692L1911.33,647.87C1905.31,652.319 1897.92,655.656 1889.15,657.88C1880.39,660.104 1871.29,661.216 1861.87,661.216C1836.49,661.216 1816.99,654.805 1803.38,641.983C1789.78,629.16 1782.97,610.319 1782.97,585.458L1782.97,522.301L1844.21,522.301Z" style="stroke:white;stroke-width:0.48px;"/>
                    </g>
                </g>
            </g>
        </g>
    </g>
</svg>
