<?xml version="1.0" encoding="UTF-8" standalone="no"?>
<!DOCTYPE svg PUBLIC "-//W3C//DTD SVG 1.1//EN" "http://www.w3.org/Graphics/SVG/1.1/DTD/svg11.dtd">
<svg width="100%" height="100%" viewBox="0 0 2661 2661" version="1.1" xmlns="http://www.w3.org/2000/svg" xmlns:xlink="http://www.w3.org/1999/xlink" xml:space="preserve" xmlns:serif="http://www.serif.com/" style="fill-rule:evenodd;clip-rule:evenodd;stroke-linejoin:round;stroke-miterlimit:2;">
    <g transform="matrix(1,0,0,1,-21424.5,-16697.4)">
        <g id="Artboard5" transform="matrix(1,0,0,1,9116.55,11273)">
            <rect x="11124.5" y="36" width="7413.38" height="9647.31" style="fill:none;"/>
            <g transform="matrix(0.591264,0,0,0.591264,4898.65,3178.72)">
                <path d="M13921.8,4657.74C13921.8,5132.11 14307,5517.24 14781.3,5517.24C15498.5,5517.24 16137.7,5181.01 16549.8,4657.74C16851.4,5040.59 17031.3,5523.56 17031.3,6048.24C17031.3,6305.99 16987.9,6553.67 16908,6784.36C16677.3,6864.3 16429.6,6907.74 16171.8,6907.74C15187.8,6907.74 14350.4,6274.63 14045.2,5393.86C13965.3,5163.17 13921.8,4915.49 13921.8,4657.74ZM13921.8,4657.74C13921.8,4183.37 14307,3798.24 14781.3,3798.24C15255.7,3798.24 15640.8,4183.37 15640.8,4657.74C15640.8,4894.92 15448.3,5087.49 15211.1,5087.49C14973.9,5087.49 14781.3,4894.92 14781.3,4657.74C14781.3,4420.55 14588.8,4227.99 14351.6,4227.99C14114.4,4227.99 13921.8,4420.55 13921.8,4657.74ZM13784.5,5284.6C14062.2,6343.45 15026.4,7125.54 16171.8,7125.54C16388.4,7125.54 16598.5,7097.58 16798.7,7045.08C16430.9,7787.4 15665.3,8298.24 14781.3,8298.24C13539.5,8298.24 12531.3,7290.05 12531.3,6048.24C12531.3,5523.56 12711.3,5040.59 13012.9,4657.74C13219.3,4395.59 13482.8,4180.38 13784.5,4030.88C13732,4231.08 13704,4441.17 13704,4657.74C13704,4874.31 13732,5084.4 13784.5,5284.6Z"/>
            </g>
        </g>
    </g>
</svg>
