<?xml version="1.0" encoding="UTF-8" standalone="no"?><!DOCTYPE svg PUBLIC "-//W3C//DTD SVG 1.1//EN" "http://www.w3.org/Graphics/SVG/1.1/DTD/svg11.dtd"><svg width="100%" height="100%" viewBox="0 0 1703 1703" version="1.1" xmlns="http://www.w3.org/2000/svg" xmlns:xlink="http://www.w3.org/1999/xlink" xml:space="preserve" xmlns:serif="http://www.serif.com/" style="fill-rule:evenodd;clip-rule:evenodd;stroke-linejoin:round;stroke-miterlimit:2;"><path d="M526.178,325.242c-0,179.507 145.736,325.243 325.242,325.243c271.369,-0 513.255,-127.23 669.212,-325.243c114.103,144.873 182.208,327.635 182.208,526.178c0,97.534 -16.435,191.26 -46.686,278.557c-87.296,30.25 -181.022,46.686 -278.556,46.686c-372.378,-0 -689.241,-239.574 -804.734,-572.864c-30.251,-87.296 -46.686,-181.022 -46.686,-278.557Zm-0,0c-0,-179.506 145.736,-325.242 325.242,-325.242c179.506,0 325.243,145.736 325.243,325.242c-0,89.754 -72.869,162.622 -162.622,162.622c-89.753,-0 -162.621,-72.868 -162.621,-162.622c0,-89.753 -72.868,-162.621 -162.621,-162.621c-89.753,0 -162.621,72.868 -162.621,162.621Zm-51.972,237.209c105.075,400.68 469.945,696.629 903.392,696.629c81.952,0 161.452,-10.579 237.209,-30.446c-139.192,280.899 -428.893,474.206 -763.387,474.206c-469.911,0 -851.42,-381.508 -851.42,-851.42c0,-198.543 68.105,-381.305 182.209,-526.178c78.131,-99.2 177.829,-180.636 291.997,-237.208c-19.866,75.756 -30.446,155.257 -30.446,237.208c0,81.952 10.58,161.453 30.446,237.209Z"/></svg>