<?xml version="1.0" encoding="UTF-8" standalone="no"?><!DOCTYPE svg PUBLIC "-//W3C//DTD SVG 1.1//EN" "http://www.w3.org/Graphics/SVG/1.1/DTD/svg11.dtd"><svg width="100%" height="100%" viewBox="0 0 4624 954" version="1.1" xmlns="http://www.w3.org/2000/svg" xmlns:xlink="http://www.w3.org/1999/xlink" xml:space="preserve" xmlns:serif="http://www.serif.com/" style="fill-rule:evenodd;clip-rule:evenodd;stroke-linejoin:round;stroke-miterlimit:2;"><rect id="Artboard5" x="-202.053" y="-8417.09" width="7413.38" height="9647.31" style="fill:none;"/><path d="M720.101,470.325l127.546,-0l0,470.324l-116.917,0l0,-62.444c-68.201,48.715 -154.56,73.073 -259.077,73.073c-84.145,-0 -162.311,-18.6 -234.498,-55.801c-72.187,-37.201 -129.76,-91.452 -172.718,-162.754c-42.958,-71.301 -64.437,-155.668 -64.437,-253.098c-0,-92.117 21.479,-174.49 64.437,-247.12c42.958,-72.63 102.302,-129.538 178.033,-170.725c75.73,-41.187 160.982,-61.78 255.755,-61.78c74.402,0 141.939,12.179 202.612,36.537c60.673,24.357 112.267,60.008 154.782,106.952l-82.373,82.373c-74.402,-71.744 -164.304,-107.617 -269.706,-107.617c-70.859,0 -134.41,15.501 -190.655,46.501c-56.244,31.001 -100.309,73.959 -132.195,128.875c-31.887,54.915 -47.83,116.917 -47.83,186.004c0,73.516 16.165,137.289 48.494,191.318c32.329,54.03 75.066,94.995 128.21,122.896c53.144,27.9 110.717,41.851 172.718,41.851c43.401,-0 85.695,-7.308 126.881,-21.922c41.187,-14.615 78.166,-36.094 110.938,-64.437l0,-279.006Zm327.219,-74.363c20.613,-37.929 51.121,-66.787 91.522,-86.575c40.402,-19.789 89.461,-29.683 147.178,-29.683l-0,115.021c-6.596,-0.825 -15.666,-1.237 -27.209,-1.237c-64.313,-0 -114.815,19.17 -151.507,57.51c-36.691,38.341 -55.036,92.965 -55.036,163.874l-0,326.512l-118.732,-0l0,-655.496l113.784,-0l0,110.074Zm300.047,-110.074l118.732,-0l-0,655.496l-118.732,-0l0,-655.496Zm59.366,-126.152c-23.087,-0 -42.257,-7.421 -57.51,-22.262c-15.254,-14.842 -22.881,-32.981 -22.881,-54.419c0,-21.438 7.627,-39.783 22.881,-55.037c15.253,-15.254 34.423,-22.88 57.51,-22.88c23.087,-0 42.257,7.214 57.511,21.643c15.253,14.429 22.88,32.363 22.88,53.8c0,22.263 -7.627,41.02 -22.88,56.274c-15.254,15.254 -34.424,22.881 -57.511,22.881Zm457.61,789.068c-65.137,0 -123.678,-14.429 -175.623,-43.287c-51.945,-28.858 -92.553,-68.642 -121.823,-119.35c-29.271,-50.708 -43.906,-108.218 -43.906,-172.531c-0,-64.313 14.635,-121.824 43.906,-172.532c29.27,-50.708 69.878,-90.285 121.823,-118.731c51.945,-28.446 110.486,-42.669 175.623,-42.669c65.138,-0 123.473,14.223 175.006,42.669c51.532,28.446 91.934,68.023 121.204,118.731c29.271,50.708 43.906,108.219 43.906,172.532c0,64.313 -14.635,121.823 -43.906,172.531c-29.27,50.708 -69.672,90.492 -121.204,119.35c-51.533,28.858 -109.868,43.287 -175.006,43.287Zm0,-103.89c42.051,0 79.773,-9.688 113.166,-29.064c33.393,-19.376 59.572,-46.586 78.536,-81.628c18.964,-35.042 28.446,-75.238 28.446,-120.586c0,-45.349 -9.482,-85.545 -28.446,-120.587c-18.964,-35.042 -45.143,-62.045 -78.536,-81.009c-33.393,-18.964 -71.115,-28.446 -113.166,-28.446c-42.05,-0 -79.772,9.482 -113.165,28.446c-33.394,18.964 -59.778,45.967 -79.155,81.009c-19.376,35.042 -29.064,75.238 -29.064,120.587c-0,45.348 9.688,85.544 29.064,120.586c19.377,35.042 45.761,62.252 79.155,81.628c33.393,19.376 71.115,29.064 113.165,29.064Zm750.729,58.129c-17.315,14.842 -38.753,26.179 -64.313,34.012c-25.56,7.833 -51.945,11.749 -79.154,11.749c-65.962,0 -117.082,-17.727 -153.361,-53.181c-36.279,-35.455 -54.419,-86.163 -54.419,-152.125l0,-601.077l118.731,-0l0,143.467l187.992,-0l-0,97.706l-187.992,-0l0,354.957c0,35.454 8.864,62.664 26.591,81.628c17.727,18.964 43.082,28.446 76.062,28.446c36.28,-0 67.199,-10.307 92.759,-30.92l37.104,85.338Zm452.663,-636.944c61.839,0 118.113,14.223 168.821,42.669c50.708,28.446 90.492,68.436 119.35,119.968c28.858,51.533 43.288,111.517 43.288,179.953c-0,68.435 -14.43,128.419 -43.288,179.952c-28.858,51.532 -68.642,91.522 -119.35,119.968c-50.708,28.446 -106.982,42.669 -168.821,42.669c-91.522,-0 -161.194,-28.858 -209.016,-86.575l-0,76.681l-184.281,-0l-0,-917.695l192.938,0l0,322.801c48.647,-53.594 115.433,-80.391 200.359,-80.391Zm-33.393,526.871c49.471,-0 90.079,-16.697 121.823,-50.09c31.744,-33.393 47.617,-78.124 47.617,-134.191c-0,-56.068 -15.873,-100.798 -47.617,-134.192c-31.744,-33.393 -72.352,-50.089 -121.823,-50.089c-49.471,-0 -90.079,16.696 -121.823,50.089c-31.744,33.394 -47.617,78.124 -47.617,134.192c0,56.067 15.873,100.798 47.617,134.191c31.744,33.393 72.352,50.09 121.823,50.09Zm760.623,160.404c-70.085,-0 -132.955,-14.636 -188.61,-43.906c-55.655,-29.271 -99.149,-69.879 -130.481,-121.824c-31.332,-51.944 -46.998,-110.898 -46.998,-176.86c0,-65.962 15.666,-124.915 46.998,-176.86c31.332,-51.945 74.826,-92.553 130.481,-121.823c55.655,-29.271 118.525,-43.906 188.61,-43.906c70.084,-0 132.748,14.635 187.991,43.906c55.243,29.27 98.531,69.878 129.862,121.823c31.332,51.945 46.998,110.898 46.998,176.86c0,65.962 -15.666,124.916 -46.998,176.86c-31.331,51.945 -74.619,92.553 -129.862,121.824c-55.243,29.27 -117.907,43.906 -187.991,43.906Zm-0,-158.309c49.471,0 90.079,-16.696 121.823,-50.09c31.744,-33.393 47.616,-78.123 47.616,-134.191c0,-56.067 -15.872,-100.798 -47.616,-134.191c-31.744,-33.393 -72.352,-50.09 -121.823,-50.09c-49.472,0 -90.286,16.697 -122.442,50.09c-32.156,33.393 -48.235,78.124 -48.235,134.191c0,56.068 16.079,100.798 48.235,134.191c32.156,33.394 72.97,50.09 122.442,50.09Zm424.217,-355.832l-0,-310.417l192.938,0l0,162.019l164.493,-0l-0,148.414l-155.217,0l0,-0.016l-202.214,0Zm-0,273.345l-0,-176.239l192.938,-0l0,173.766c0,28.034 7.009,49.677 21.026,64.931c14.017,15.254 34.217,22.881 60.602,22.881c29.683,-0 56.068,-8.246 79.154,-24.736l50.709,136.046c-18.964,14.017 -42.257,24.53 -69.879,31.538c-27.621,7.009 -56.273,10.513 -85.956,10.513c-79.979,-0 -141.406,-20.201 -184.281,-60.602c-42.875,-40.402 -64.313,-99.768 -64.313,-178.098Z"/></svg>