<?xml version="1.0" encoding="UTF-8" standalone="no"?><!DOCTYPE svg PUBLIC "-//W3C//DTD SVG 1.1//EN" "http://www.w3.org/Graphics/SVG/1.1/DTD/svg11.dtd"><svg width="100%" height="100%" viewBox="0 0 2984 704" version="1.1" xmlns="http://www.w3.org/2000/svg" xmlns:xlink="http://www.w3.org/1999/xlink" xml:space="preserve" xmlns:serif="http://www.serif.com/" style="fill-rule:evenodd;clip-rule:evenodd;stroke-linejoin:round;stroke-miterlimit:2;"><path d="M217.532,134.462c0,74.211 60.25,134.461 134.462,134.461c112.189,0 212.189,-52.599 276.665,-134.461c47.172,59.893 75.328,135.45 75.328,217.532c0,40.322 -6.794,79.07 -19.3,115.16c-36.091,12.506 -74.839,19.301 -115.161,19.301c-153.948,0 -284.946,-99.044 -332.693,-236.833c-12.506,-36.09 -19.301,-74.838 -19.301,-115.16Zm0,-0c0,-74.212 60.25,-134.462 134.462,-134.462c74.211,0 134.461,60.25 134.461,134.462c0,37.105 -30.125,67.23 -67.23,67.23c-37.106,0 -67.231,-30.125 -67.231,-67.23c-0,-37.106 -30.125,-67.231 -67.231,-67.231c-37.106,-0 -67.231,30.125 -67.231,67.231Zm-21.486,98.066c43.44,165.649 194.284,288 373.48,288c33.88,0 66.747,-4.373 98.067,-12.587c-57.545,116.129 -177.313,196.046 -315.599,196.046c-194.271,0 -351.994,-157.723 -351.994,-351.993c-0,-82.082 28.156,-157.639 75.329,-217.532c32.301,-41.012 73.518,-74.679 120.717,-98.067c-8.213,31.319 -12.587,64.186 -12.587,98.067c0,33.88 4.374,66.747 12.587,98.066Z" style="fill:#fff;"/><path d="M1166.95,349.034l59.343,-0l0,218.829l-54.398,-0l0,-29.054c-31.732,22.666 -71.913,33.999 -120.541,33.999c-39.151,-0 -75.519,-8.654 -109.106,-25.963c-33.587,-17.308 -60.374,-42.55 -80.361,-75.725c-19.987,-33.174 -29.981,-72.428 -29.981,-117.759c0,-42.86 9.994,-81.185 29.981,-114.978c19.987,-33.793 47.599,-60.271 82.834,-79.434c35.235,-19.163 74.9,-28.745 118.996,-28.745c34.617,0 66.04,5.667 94.269,17c28.23,11.333 52.235,27.92 72.016,49.762l-38.326,38.326c-34.617,-33.381 -76.446,-50.071 -125.486,-50.071c-32.969,-0 -62.538,7.212 -88.707,21.635c-26.168,14.424 -46.671,34.411 -61.507,59.962c-14.835,25.551 -22.253,54.398 -22.253,86.543c-0,34.205 7.521,63.876 22.562,89.015c15.042,25.138 34.927,44.198 59.653,57.18c24.726,12.981 51.513,19.472 80.361,19.472c20.193,-0 39.871,-3.4 59.034,-10.2c19.163,-6.8 36.369,-16.793 51.617,-29.981l-0,-129.813Zm152.246,-34.6c9.59,-17.646 23.785,-31.073 42.582,-40.28c18.798,-9.208 41.624,-13.811 68.478,-13.811l-0,53.516c-3.069,-0.384 -7.289,-0.575 -12.66,-0.575c-29.923,-0 -53.42,8.919 -70.491,26.758c-17.072,17.838 -25.608,43.254 -25.608,76.246l0,151.916l-55.242,0l0,-304.984l52.941,0l-0,51.214Zm139.603,-51.214l55.243,0l-0,304.984l-55.243,0l0,-304.984Zm27.621,-58.695c-10.741,0 -19.66,-3.453 -26.758,-10.358c-7.097,-6.905 -10.645,-15.345 -10.645,-25.319c-0,-9.975 3.548,-18.51 10.645,-25.607c7.098,-7.098 16.017,-10.646 26.758,-10.646c10.742,-0 19.661,3.357 26.759,10.07c7.097,6.714 10.645,15.057 10.645,25.032c0,10.358 -3.548,19.085 -10.645,26.182c-7.098,7.098 -16.017,10.646 -26.759,10.646Zm212.914,367.132c-30.307,-0 -57.544,-6.714 -81.713,-20.14c-24.168,-13.427 -43.062,-31.938 -56.681,-55.531c-13.619,-23.593 -20.428,-50.351 -20.428,-80.274c0,-29.923 6.809,-56.681 20.428,-80.274c13.619,-23.593 32.513,-42.007 56.681,-55.242c24.169,-13.235 51.406,-19.853 81.713,-19.853c30.307,-0 57.448,6.618 81.425,19.853c23.977,13.235 42.775,31.649 56.393,55.242c13.619,23.593 20.428,50.351 20.428,80.274c0,29.923 -6.809,56.681 -20.428,80.274c-13.618,23.593 -32.416,42.104 -56.393,55.531c-23.977,13.426 -51.118,20.14 -81.425,20.14Zm-0,-48.337c19.565,-0 37.116,-4.508 52.653,-13.523c15.537,-9.015 27.717,-21.675 36.54,-37.979c8.824,-16.304 13.236,-35.006 13.236,-56.106c-0,-21.099 -4.412,-39.801 -13.236,-56.105c-8.823,-16.305 -21.003,-28.868 -36.54,-37.692c-15.537,-8.823 -33.088,-13.235 -52.653,-13.235c-19.565,0 -37.116,4.412 -52.653,13.235c-15.537,8.824 -27.813,21.387 -36.828,37.692c-9.015,16.304 -13.523,35.006 -13.523,56.105c-0,21.1 4.508,39.802 13.523,56.106c9.015,16.304 21.291,28.964 36.828,37.979c15.537,9.015 33.088,13.523 52.653,13.523Zm349.293,27.046c-8.056,6.905 -18.03,12.18 -29.923,15.824c-11.892,3.645 -24.168,5.467 -36.828,5.467c-30.69,-0 -54.475,-8.248 -71.355,-24.744c-16.879,-16.496 -25.319,-40.089 -25.319,-70.779l-0,-279.665l55.242,-0l0,66.751l87.467,0l0,45.46l-87.467,0l0,165.152c0,16.496 4.124,29.156 12.372,37.979c8.248,8.823 20.045,13.235 35.39,13.235c16.879,0 31.265,-4.795 43.158,-14.386l17.263,39.706Zm210.612,-296.353c28.772,0 54.955,6.618 78.548,19.853c23.593,13.235 42.103,31.841 55.53,55.818c13.427,23.976 20.14,51.885 20.14,83.726c0,31.842 -6.713,59.751 -20.14,83.727c-13.427,23.977 -31.937,42.583 -55.53,55.818c-23.593,13.235 -49.776,19.853 -78.548,19.853c-42.583,-0 -74.999,-13.427 -97.25,-40.281l0,35.677l-85.741,0l0,-426.978l89.769,0l0,150.191c22.634,-24.936 53.708,-37.404 93.222,-37.404Zm-15.537,245.138c23.018,0 41.911,-7.768 56.681,-23.305c14.77,-15.537 22.154,-36.349 22.154,-62.436c0,-26.086 -7.384,-46.898 -22.154,-62.435c-14.77,-15.537 -33.663,-23.305 -56.681,-23.305c-23.018,-0 -41.911,7.768 -56.681,23.305c-14.77,15.537 -22.155,36.349 -22.155,62.435c0,26.087 7.385,46.899 22.155,62.436c14.77,15.537 33.663,23.305 56.681,23.305Zm353.897,74.632c-32.609,-0 -61.86,-6.809 -87.755,-20.428c-25.895,-13.619 -46.131,-32.513 -60.709,-56.681c-14.578,-24.169 -21.867,-51.598 -21.867,-82.288c-0,-30.691 7.289,-58.12 21.867,-82.289c14.578,-24.168 34.814,-43.062 60.709,-56.681c25.895,-13.618 55.146,-20.428 87.755,-20.428c32.608,0 61.764,6.81 87.467,20.428c25.703,13.619 45.843,32.513 60.421,56.681c14.578,24.169 21.867,51.598 21.867,82.289c0,30.69 -7.289,58.119 -21.867,82.288c-14.578,24.168 -34.718,43.062 -60.421,56.681c-25.703,13.619 -54.859,20.428 -87.467,20.428Zm-0,-73.657c23.017,0 41.911,-7.768 56.681,-23.305c14.769,-15.537 22.154,-36.349 22.154,-62.435c0,-26.087 -7.385,-46.899 -22.154,-62.436c-14.77,-15.537 -33.664,-23.305 -56.681,-23.305c-23.018,-0 -42.008,7.768 -56.969,23.305c-14.962,15.537 -22.442,36.349 -22.442,62.436c-0,26.086 7.48,46.898 22.442,62.435c14.961,15.537 33.951,23.305 56.969,23.305Zm197.376,-165.558l0,-144.429l89.769,0l0,75.383l76.534,-0l-0,69.053l-72.218,-0l-0,-0.007l-94.085,-0Zm0,127.18l0,-82l89.769,0l0,80.849c0,13.043 3.261,23.113 9.783,30.21c6.521,7.098 15.92,10.646 28.196,10.646c13.811,0 26.087,-3.836 36.829,-11.509l23.593,63.299c-8.824,6.522 -19.661,11.413 -32.513,14.674c-12.851,3.26 -26.182,4.891 -39.993,4.891c-37.212,-0 -65.792,-9.399 -85.741,-28.197c-19.948,-18.798 -29.923,-46.419 -29.923,-82.863Z" style="fill:#fff;"/></svg>