<?xml version="1.0" encoding="UTF-8" standalone="no"?><!DOCTYPE svg PUBLIC "-//W3C//DTD SVG 1.1//EN" "http://www.w3.org/Graphics/SVG/1.1/DTD/svg11.dtd"><svg width="100%" height="100%" viewBox="0 0 4624 3982" version="1.1" xmlns="http://www.w3.org/2000/svg" xmlns:xlink="http://www.w3.org/1999/xlink" xml:space="preserve" xmlns:serif="http://www.serif.com/" style="fill-rule:evenodd;clip-rule:evenodd;stroke-linejoin:round;stroke-miterlimit:2;"><path d="M1803.61,508.191c-0,280.479 227.713,508.192 508.191,508.192c424.014,-0 801.962,-198.798 1045.64,-508.192c178.287,226.364 284.701,511.929 284.701,822.153c0,152.397 -25.68,298.844 -72.947,435.244c-136.4,47.267 -282.847,72.947 -435.244,72.947c-581.84,0 -1076.94,-374.333 -1257.4,-895.099c-47.266,-136.401 -72.947,-282.847 -72.947,-435.245Zm-0,0c-0,-280.478 227.713,-508.191 508.191,-508.191c280.479,0 508.192,227.713 508.192,508.191c-0,140.24 -113.857,254.096 -254.096,254.096c-140.239,0 -254.096,-113.856 -254.096,-254.096c0,-140.239 -113.856,-254.095 -254.095,-254.095c-140.24,-0 -254.096,113.856 -254.096,254.095Zm-81.206,370.639c164.179,626.062 734.289,1088.48 1411.55,1088.48c128.05,-0 252.269,-16.531 370.639,-47.572c-217.488,438.904 -670.145,740.947 -1192.79,740.947c-734.237,-0 -1330.34,-596.107 -1330.34,-1330.34c0,-310.224 106.415,-595.789 284.701,-822.153c122.08,-155 277.859,-282.243 456.246,-370.638c-31.041,118.369 -47.571,242.589 -47.571,370.638c-0,128.05 16.53,252.27 47.571,370.639Z"/><path d="M720.101,3498.93l127.546,0l0,470.325l-116.917,-0l0,-62.444c-68.201,48.715 -154.56,73.073 -259.077,73.073c-84.145,-0 -162.311,-18.601 -234.498,-55.802c-72.187,-37.2 -129.76,-91.452 -172.718,-162.753c-42.958,-71.302 -64.437,-155.668 -64.437,-253.098c-0,-92.117 21.479,-174.49 64.437,-247.12c42.958,-72.63 102.302,-129.539 178.033,-170.725c75.73,-41.187 160.982,-61.78 255.755,-61.78c74.402,-0 141.939,12.179 202.612,36.536c60.673,24.358 112.267,60.009 154.782,106.953l-82.373,82.373c-74.402,-71.745 -164.304,-107.617 -269.706,-107.617c-70.859,0 -134.41,15.501 -190.655,46.501c-56.244,31.001 -100.309,73.959 -132.195,128.874c-31.887,54.916 -47.83,116.917 -47.83,186.005c0,73.515 16.165,137.288 48.494,191.318c32.329,54.03 75.066,94.995 128.21,122.896c53.144,27.9 110.717,41.85 172.718,41.85c43.401,0 85.695,-7.307 126.881,-21.921c41.187,-14.615 78.166,-36.094 110.938,-64.438l0,-279.006Zm327.219,-74.363c20.613,-37.928 51.121,-66.786 91.522,-86.575c40.402,-19.788 89.461,-29.682 147.178,-29.682l-0,115.021c-6.596,-0.825 -15.666,-1.237 -27.209,-1.237c-64.313,-0 -114.815,19.17 -151.507,57.51c-36.691,38.341 -55.036,92.965 -55.036,163.874l-0,326.511l-118.732,0l0,-655.496l113.784,0l0,110.074Zm300.047,-110.074l118.732,0l-0,655.496l-118.732,0l0,-655.496Zm59.366,-126.152c-23.087,0 -42.257,-7.42 -57.51,-22.262c-15.254,-14.841 -22.881,-32.981 -22.881,-54.418c0,-21.438 7.627,-39.784 22.881,-55.037c15.253,-15.254 34.423,-22.881 57.51,-22.881c23.087,0 42.257,7.215 57.511,21.644c15.253,14.429 22.88,32.363 22.88,53.8c0,22.262 -7.627,41.02 -22.88,56.274c-15.254,15.254 -34.424,22.88 -57.511,22.88Zm457.61,789.069c-65.137,0 -123.678,-14.429 -175.623,-43.287c-51.945,-28.859 -92.553,-68.642 -121.823,-119.35c-29.271,-50.708 -43.906,-108.219 -43.906,-172.532c-0,-64.312 14.635,-121.823 43.906,-172.531c29.27,-50.708 69.878,-90.285 121.823,-118.731c51.945,-28.446 110.486,-42.669 175.623,-42.669c65.138,-0 123.473,14.223 175.006,42.669c51.532,28.446 91.934,68.023 121.204,118.731c29.271,50.708 43.906,108.219 43.906,172.531c0,64.313 -14.635,121.824 -43.906,172.532c-29.27,50.708 -69.672,90.491 -121.204,119.35c-51.533,28.858 -109.868,43.287 -175.006,43.287Zm0,-103.89c42.051,0 79.773,-9.688 113.166,-29.064c33.393,-19.377 59.572,-46.586 78.536,-81.628c18.964,-35.042 28.446,-75.238 28.446,-120.587c0,-45.348 -9.482,-85.544 -28.446,-120.586c-18.964,-35.042 -45.143,-62.045 -78.536,-81.009c-33.393,-18.965 -71.115,-28.447 -113.166,-28.447c-42.05,0 -79.772,9.482 -113.165,28.447c-33.394,18.964 -59.778,45.967 -79.155,81.009c-19.376,35.042 -29.064,75.238 -29.064,120.586c-0,45.349 9.688,85.545 29.064,120.587c19.377,35.042 45.761,62.251 79.155,81.628c33.393,19.376 71.115,29.064 113.165,29.064Zm750.729,58.129c-17.315,14.842 -38.753,26.179 -64.313,34.012c-25.56,7.833 -51.945,11.749 -79.154,11.749c-65.962,0 -117.082,-17.727 -153.361,-53.182c-36.279,-35.454 -54.419,-86.162 -54.419,-152.124l0,-601.078l118.731,0l0,143.467l187.992,0l-0,97.706l-187.992,0l0,354.958c0,35.454 8.864,62.663 26.591,81.628c17.727,18.964 43.082,28.446 76.062,28.446c36.28,-0 67.199,-10.307 92.759,-30.92l37.104,85.338Zm452.663,-636.944c61.839,-0 118.113,14.223 168.821,42.669c50.708,28.446 90.492,68.435 119.35,119.968c28.858,51.533 43.288,111.517 43.288,179.952c-0,68.436 -14.43,128.42 -43.288,179.952c-28.858,51.533 -68.642,91.523 -119.35,119.969c-50.708,28.446 -106.982,42.669 -168.821,42.669c-91.522,-0 -161.194,-28.859 -209.016,-86.575l-0,76.68l-184.281,0l-0,-917.694l192.938,0l0,322.801c48.647,-53.594 115.433,-80.391 200.359,-80.391Zm-33.393,526.87c49.471,0 90.079,-16.696 121.823,-50.09c31.744,-33.393 47.617,-78.123 47.617,-134.191c-0,-56.067 -15.873,-100.798 -47.617,-134.191c-31.744,-33.393 -72.352,-50.09 -121.823,-50.09c-49.471,0 -90.079,16.697 -121.823,50.09c-31.744,33.393 -47.617,78.124 -47.617,134.191c0,56.068 15.873,100.798 47.617,134.191c31.744,33.394 72.352,50.09 121.823,50.09Zm760.623,160.404c-70.085,0 -132.955,-14.635 -188.61,-43.905c-55.655,-29.271 -99.149,-69.879 -130.481,-121.824c-31.332,-51.945 -46.998,-110.898 -46.998,-176.86c0,-65.962 15.666,-124.915 46.998,-176.86c31.332,-51.945 74.826,-92.553 130.481,-121.824c55.655,-29.27 118.525,-43.905 188.61,-43.905c70.084,-0 132.748,14.635 187.991,43.905c55.243,29.271 98.531,69.879 129.862,121.824c31.332,51.945 46.998,110.898 46.998,176.86c0,65.962 -15.666,124.915 -46.998,176.86c-31.331,51.945 -74.619,92.553 -129.862,121.824c-55.243,29.27 -117.907,43.905 -187.991,43.905Zm-0,-158.308c49.471,-0 90.079,-16.697 121.823,-50.09c31.744,-33.393 47.616,-78.123 47.616,-134.191c0,-56.068 -15.872,-100.798 -47.616,-134.191c-31.744,-33.393 -72.352,-50.09 -121.823,-50.09c-49.472,0 -90.286,16.697 -122.442,50.09c-32.156,33.393 -48.235,78.123 -48.235,134.191c0,56.068 16.079,100.798 48.235,134.191c32.156,33.393 72.97,50.09 122.442,50.09Zm424.217,-355.832l-0,-310.417l192.938,-0l0,162.019l164.493,-0l-0,148.414l-155.217,-0l0,-0.016l-202.214,-0Zm-0,273.345l-0,-176.24l192.938,0l0,173.767c0,28.033 7.009,49.677 21.026,64.931c14.017,15.254 34.217,22.88 60.602,22.88c29.683,0 56.068,-8.245 79.154,-24.735l50.709,136.046c-18.964,14.017 -42.257,24.53 -69.879,31.538c-27.621,7.008 -56.273,10.513 -85.956,10.513c-79.979,-0 -141.406,-20.201 -184.281,-60.603c-42.875,-40.401 -64.313,-99.767 -64.313,-178.097Z"/></svg>
