<?xml version="1.0" encoding="UTF-8" standalone="no"?><!DOCTYPE svg PUBLIC "-//W3C//DTD SVG 1.1//EN" "http://www.w3.org/Graphics/SVG/1.1/DTD/svg11.dtd"><svg width="100%" height="100%" viewBox="0 0 2661 2661" version="1.1" xmlns="http://www.w3.org/2000/svg" xmlns:xlink="http://www.w3.org/1999/xlink" xml:space="preserve" xmlns:serif="http://www.serif.com/" style="fill-rule:evenodd;clip-rule:evenodd;stroke-linejoin:round;stroke-miterlimit:2;"><rect id="Artboard5" x="-1183.51" y="-5388.48" width="7413.38" height="9647.31" style="fill:none;"/><path d="M822.153,508.191c-0,280.479 227.712,508.192 508.191,508.192c424.013,-0 801.961,-198.798 1045.64,-508.192c178.286,226.364 284.701,511.929 284.701,822.153c-0,152.397 -25.681,298.844 -72.947,435.244c-136.401,47.267 -282.847,72.947 -435.244,72.947c-581.84,0 -1076.94,-374.333 -1257.4,-895.099c-47.266,-136.401 -72.946,-282.847 -72.946,-435.245Zm-0,0c-0,-280.478 227.712,-508.191 508.191,-508.191c280.478,0 508.191,227.713 508.191,508.191c0,140.24 -113.856,254.096 -254.095,254.096c-140.24,0 -254.096,-113.856 -254.096,-254.096c-0,-140.239 -113.857,-254.095 -254.096,-254.095c-140.239,-0 -254.095,113.856 -254.095,254.095Zm-81.206,370.639c164.179,626.062 734.288,1088.48 1411.55,1088.48c128.049,-0 252.269,-16.531 370.638,-47.572c-217.487,438.904 -670.144,740.947 -1192.79,740.947c-734.237,-0 -1330.34,-596.107 -1330.34,-1330.34c0,-310.224 106.415,-595.789 284.701,-822.153c122.08,-155 277.859,-282.243 456.246,-370.638c-31.041,118.369 -47.572,242.589 -47.572,370.638c0,128.05 16.531,252.27 47.572,370.639Z" style="fill:#fff;"/></svg>
